<svg viewBox="0 0 128 128" xmlns="http://www.w3.org/2000/svg">
  <!-- Background -->
  <rect width="128" height="128" fill="oklch(0.9735 0.0261 90.0953)" rx="24"/>
  
  <!-- Stylized "B" shape that looks like building blocks -->
  <path d="M 35 30 L 35 98 L 65 98 C 75 98 83 90 83 80 C 83 74 80 69 75 66 C 78 63 80 58 80 53 C 80 43 72 35 62 35 L 35 30 Z M 50 45 L 62 45 C 66 45 69 48 69 52 C 69 56 66 59 62 59 L 50 59 Z M 50 70 L 65 70 C 69 70 72 73 72 77 C 72 81 69 84 65 84 L 50 84 Z" fill="#1e40af"/>
  
  <!-- Small hammer icon in corner suggesting "built" -->
  <g transform="translate(78, 78) rotate(-45)">
    <rect x="0" y="0" width="4" height="16" fill="#fbbf24" rx="1"/>
    <rect x="-3" y="0" width="10" height="6" fill="#94a3b8" rx="1"/>
  </g>
</svg>